<?xml version="1.0" encoding="utf-8"?>
<!-- Generator: Adobe Illustrator 27.8.1, SVG Export Plug-In . SVG Version: 6.00 Build 0)  -->
<svg version="1.1" id="Capa_1" xmlns="http://www.w3.org/2000/svg" xmlns:xlink="http://www.w3.org/1999/xlink" x="0px" y="0px"
	 viewBox="0 0 518.638 495.181" enable-background="new 0 0 518.638 495.181" xml:space="preserve">
<g>
	<g>
		<path fill="#073B58" d="M0,106.207v345.889c0,0.678,0.281,1.328,0.781,1.808l42.291,40.529c0.5,0.479,1.179,0.749,1.886,0.749
			h15.059c1.473,0,2.668-1.145,2.668-2.557V106.207c0-1.412-1.194-2.557-2.668-2.557H2.668C1.194,103.651,0,104.795,0,106.207z"/>
		<path fill="#EA5637" d="M45.252,0.679L0.709,43.366C0.255,43.801,0,44.391,0,45.006v15.223c0,1.281,1.084,2.32,2.42,2.32h57.844
			c1.337,0,2.42-1.038,2.42-2.32V2.32c0-1.281-1.084-2.32-2.42-2.32H46.963C46.321,0,45.706,0.244,45.252,0.679z"/>
		<path fill="#073B58" d="M310.348,495.178c-66.328-0.003-132.656-0.002-198.985-0.004c-5.679,0-5.678-0.007-5.678-5.269
			c0-17.496,0.09-34.992-0.084-52.487c-0.031-3.098,0.86-3.704,3.969-3.702c129.359,0.084,156.622,0.063,285.981,0.09
			c9.204,0.002,18.318-0.615,26.673-4.595c18.435-8.782,30.249-22.502,31.269-42.704c1.022-20.256,0.657-40.57,0.091-60.852
			c-0.355-12.738-6.02-23.342-15.37-32.262c-11.256-10.738-25.03-15.081-40.655-15.078c-129.74,0.028-157.383,0.002-287.123,0.101
			c-3.721,0.003-4.919-0.634-4.863-4.485c0.253-17.371,0.111-34.747,0.111-52.122c0-4.885-0.001-4.888,4.932-4.888
			c129.866,0,157.637-0.002,287.503,0.002c21.711,0.001,38.308-8.741,49.417-26.681c4.57-7.38,6.285-15.556,6.283-24.059
			c-0.006-18.83,0.177-37.665-0.23-56.488c-0.37-17.086-9.367-29.82-23.549-39.498c-9.562-6.526-20.529-8.689-31.993-8.693
			c-128.852-0.046-155.608-0.03-284.46-0.032c-1.268,0-2.562-0.161-3.8,0.022c-3.28,0.485-4.248-0.593-4.213-3.882
			c0.194-17.98,0.159-35.963,0.046-53.944c-0.018-2.766,0.607-3.664,3.718-3.662c130.627,0.081,159.159,0.128,289.786,0.018
			c28.471-0.024,54.066,7.814,75.828,25.355c26.105,21.042,41.681,47.729,42.992,80.92c0.877,22.214,0.987,44.477-0.058,66.684
			c-1.311,27.852-12.785,51.696-33.27,71.464c-2.611,2.52-2.678,3.828-0.047,6.365c23.174,22.355,34.005,49.52,33.712,80.877
			c-0.188,20.165,0.834,40.354-0.546,60.49c-1.677,24.453-11.484,45.739-28.342,64.174c-16.885,18.465-37.557,30.78-62.59,36.231
			c-9.44,2.055-19.047,2.597-28.699,2.597C334.822,495.18,373.633,495.181,310.348,495.178z"/>
	</g>
</g>
</svg>
