<?xml version="1.0" encoding="utf-8"?>
<!-- Generator: Adobe Illustrator 27.8.1, SVG Export Plug-In . SVG Version: 6.00 Build 0)  -->
<svg version="1.1" id="Capa_1" xmlns="http://www.w3.org/2000/svg" xmlns:xlink="http://www.w3.org/1999/xlink" x="0px" y="0px"
	 viewBox="0 0 503.428 493.775" enable-background="new 0 0 503.428 493.775" xml:space="preserve">
<g>
	<g>
		<path fill="#F6F6F6" d="M0.262,105.971c0.829,2.182-1.505,345.201,0.756,346.648c0.002,0.002,41.008,40.409,41.008,40.409
			c0.485,0.478,1.143,0.747,1.829,0.747c0,0,14.602,0,14.602,0c1.429,0,2.587-1.141,2.587-2.549
			c-2.571-2.63,4.927-388.346-2.58-387.798c-0.007-0.006-55.614-0.006-55.614-0.006C1.42,103.422,0.262,104.563,0.262,105.971z"/>
		<path fill="#EA5637" d="M44.139,0.76L0.949,43.319c-0.44,0.434-0.687,1.022-0.687,1.635v15.177c0,1.277,1.051,2.313,2.347,2.313
			h56.087c1.296,0,2.347-1.035,2.347-2.313c0,0,0-57.736,0-57.736c0-1.277-1.051-2.313-2.347-2.313
			C57.442,0.277,44.738-0.553,44.139,0.76z"/>
		<path fill="#F6F6F6" d="M301.182,493.772c-64.313-0.003-128.626-0.002-192.939-0.004c-5.506,0-5.505-0.007-5.505-5.254
			c0-17.443,0.087-34.887-0.081-52.329c-0.03-3.089,0.834-3.693,3.849-3.691c125.429,0.083,151.864,0.063,277.293,0.09
			c8.925,0.002,17.761-0.613,25.863-4.581c41.728-17.561,29.434-67.054,30.407-103.245c-0.716-27.677-27.519-48.339-54.323-47.196
			c-125.798,0.028-152.602,0.001-278.4,0.1c-3.608,0.003-4.77-0.632-4.715-4.471c0.246-17.319,0.108-34.643,0.107-51.965
			c0-4.871-0.001-4.873,4.782-4.873c125.921,0,152.848-0.002,278.769,0.002c28.676,1.004,54.475-21.517,54.008-50.588
			c-0.006-18.773,0.171-37.552-0.223-56.318c-0.245-27.775-26.912-49.241-53.855-48.047c-125.281-0.037-154.143-0.065-279.502-0.01
			c-3.18,0.484-4.119-0.591-4.085-3.87c0.188-17.926,0.154-35.855,0.044-53.782c-0.017-2.758,0.588-3.653,3.605-3.651
			C232.94,0.171,260.604,0.217,387.263,0.108c58.928-1.764,113.649,46.483,115.209,105.956
			c1.145,47.93,6.877,102.239-32.317,137.731c-2.531,2.513-2.595,3.817-0.044,6.347c39.992,36.611,33.272,91.848,32.158,140.942
			c-2.892,48.116-41.328,89.936-88.168,100.102c-9.153,2.049-18.468,2.589-27.827,2.589
			C324.912,493.774,362.544,493.774,301.182,493.772z"/>
	</g>
</g>
</svg>
