<?xml version="1.0" encoding="utf-8"?>
<!-- Generator: Adobe Illustrator 27.8.1, SVG Export Plug-In . SVG Version: 6.00 Build 0)  -->
<svg version="1.1" id="Capa_1" xmlns="http://www.w3.org/2000/svg" xmlns:xlink="http://www.w3.org/1999/xlink" x="0px" y="0px"
	 viewBox="0 0 659.726 218.906" enable-background="new 0 0 659.726 218.906" xml:space="preserve">
<g>
	<g>
		<rect x="92.192" y="168.081" fill="#FFFFFF" width="5.534" height="48.118"/>
		<polygon fill="#FFFFFF" points="156.142,168.081 156.142,207.32 104.432,165.374 104.432,216.199 109.965,216.199 
			109.965,176.961 161.675,218.906 161.675,168.081 		"/>
		<path fill="#FFFFFF" d="M225.625,182.74v-1.246c0-8.775-4.638-13.413-13.413-13.413h-30.417c-8.775,0-13.413,4.638-13.413,13.413
			v21.292c0,8.775,4.638,13.413,13.413,13.413h30.417c8.775,0,13.413-4.638,13.413-13.413v-13.413h-32.909v5.534h27.376v7.879
			c0,5.375-2.504,7.879-7.879,7.879h-30.417c-5.375,0-7.879-2.504-7.879-7.879v-21.292c0-5.375,2.504-7.879,7.879-7.879h30.417
			c5.375,0,7.879,2.504,7.879,7.879v1.246H225.625z"/>
		<polygon fill="#FFFFFF" points="289.574,173.615 289.574,168.081 232.331,168.081 232.331,216.199 289.574,216.199 
			289.574,210.666 237.865,210.666 237.865,194.907 286.532,194.907 286.532,189.374 237.865,189.374 237.865,173.615 		"/>
		<polygon fill="#FFFFFF" points="346.591,168.081 346.591,207.32 294.881,165.374 294.881,216.199 300.415,216.199 
			300.415,176.961 352.124,218.906 352.124,168.081 		"/>
		<rect x="358.831" y="168.081" fill="#FFFFFF" width="5.534" height="48.118"/>
		<polygon fill="#FFFFFF" points="428.314,173.615 428.314,168.081 371.071,168.081 371.071,216.199 428.314,216.199 
			428.314,210.666 376.604,210.666 376.604,194.907 425.272,194.907 425.272,189.374 376.604,189.374 376.604,173.615 		"/>
		<path fill="#FFFFFF" d="M486.761,192.14c2.724-2.24,4.103-5.81,4.103-10.646c0-8.775-4.638-13.413-13.413-13.413h-43.83v48.118
			h5.534v-21.292h38.297c5.375,0,7.879,2.504,7.879,7.879v13.413h5.534v-13.413C490.864,197.951,489.486,194.381,486.761,192.14z
			 M439.155,173.615h38.297c5.375,0,7.879,2.504,7.879,7.879c0,5.375-2.504,7.879-7.879,7.879h-38.297V173.615z"/>
		<rect x="497.571" y="168.081" fill="#FFFFFF" width="5.534" height="48.118"/>
		<g>
			<polygon fill="#FFFFFF" points="504.92,159.035 498.11,165.845 503.041,165.845 509.85,159.035 			"/>
		</g>
		<path fill="#FFFFFF" d="M536.394,166.211l-31.14,49.989h6.495l7.574-12.167h34.143l7.574,12.167h6.495L536.394,166.211z
			 M536.394,176.611l13.634,21.888H522.76L536.394,176.611z"/>
	</g>
	<g>
		<path fill="#FFFFFF" d="M135.574,77.199c7.163-6.751,10.787-17.676,10.787-32.563c0-26.572-11.832-40.618-34.219-40.618H0v146.361
			h112.143c22.386,0,34.219-14.045,34.219-40.618C146.361,94.876,142.737,83.951,135.574,77.199z M112.143,134.27H13.889V85.253
			h98.254c13.87,0,20.33,7.788,20.33,24.509S126.012,134.27,112.143,134.27z M112.143,69.144H13.889V20.127h98.254
			c13.87,0,20.33,7.788,20.33,24.509S126.012,69.144,112.143,69.144z"/>
		<polygon fill="#FFFFFF" points="244.303,1.471 171.122,147.832 186.041,147.832 244.303,31.234 302.565,147.832 317.483,147.832 
					"/>
		<path fill="#FFFFFF" d="M488.605,45.168v-3.403c0-26.572-11.832-40.618-34.219-40.618h-77.925
			c-22.385,0-34.217,14.045-34.217,40.618v65.126c0,26.572,11.832,40.618,34.217,40.618h77.925
			c22.386,0,34.219-14.045,34.219-40.618v-3.403h-13.889v3.403c0,16.721-6.46,24.509-20.33,24.509h-77.925
			c-13.87,0-20.329-7.788-20.329-24.509V41.765c0-16.721,6.459-24.509,20.329-24.509h77.925c13.87,0,20.33,7.788,20.33,24.509v3.403
			H488.605z"/>
		<path fill="#FFFFFF" d="M625.508,0h-77.925c-22.385,0-34.217,14.045-34.217,40.618v65.126c0,26.572,11.832,40.618,34.217,40.618
			h77.925c22.386,0,34.219-14.045,34.219-40.618V40.618C659.726,14.045,647.894,0,625.508,0z M625.508,130.253h-77.925
			c-13.87,0-20.329-7.788-20.329-24.509V40.618c0-16.721,6.459-24.509,20.329-24.509h77.925c13.87,0,20.33,7.788,20.33,24.509
			v65.126C645.838,122.465,639.377,130.253,625.508,130.253z"/>
	</g>
</g>
</svg>
